PathFileType	4	(X/Y/Z)	C:\Users\Biomechanik\SynologyDrive\AlexP\Athlete_03\Athlete_3_25_03_31\Walking_01\marker_experimental.trc
DataRate	CameraRate	NumFrames	NumMarkers	Units	OrigDataRate	OrigDataStartFrame	OrigNumFrames
200.000000	200.000000	4	53	mm	200.000000	209	239
Frame#	Time	GLAB			RFHD			LFHD			C7			T6			SPINMOL			SPINM2			SPINM3			T12			BELTOL			BELT2			BELT3			SACROL			SACR2			SACR3			LTHOL			LTH2			LTH3			LSHAOL			LSHA2			LSHA3			LHEE			LTOE			LM5			RTHOL			RTH2			RTH3			RSHAOL			RSHA2			RSHA3			RHEE			RTOE			RM5			STRN			XIPH			LACR			LUAOL			LUA2			LUA3			LLAOL			LLA2			LLA3			LWRR			LWRU			RACR			RUAOL			RUA2			RUA3			RLAOL			RLA2			RLA3			RWRR			RWRU			
		X1	Y1	Z1	X2	Y2	Z2	X3	Y3	Z3	X4	Y4	Z4	X5	Y5	Z5	X6	Y6	Z6	X7	Y7	Z7	X8	Y8	Z8	X9	Y9	Z9	X10	Y10	Z10	X11	Y11	Z11	X12	Y12	Z12	X13	Y13	Z13	X14	Y14	Z14	X15	Y15	Z15	X16	Y16	Z16	X17	Y17	Z17	X18	Y18	Z18	X19	Y19	Z19	X20	Y20	Z20	X21	Y21	Z21	X22	Y22	Z22	X23	Y23	Z23	X24	Y24	Z24	X25	Y25	Z25	X26	Y26	Z26	X27	Y27	Z27	X28	Y28	Z28	X29	Y29	Z29	X30	Y30	Z30	X31	Y31	Z31	X32	Y32	Z32	X33	Y33	Z33	X34	Y34	Z34	X35	Y35	Z35	X36	Y36	Z36	X37	Y37	Z37	X38	Y38	Z38	X39	Y39	Z39	X40	Y40	Z40	X41	Y41	Z41	X42	Y42	Z42	X43	Y43	Z43	X44	Y44	Z44	X45	Y45	Z45	X46	Y46	Z46	X47	Y47	Z47	X48	Y48	Z48	X49	Y49	Z49	X50	Y50	Z50	X51	Y51	Z51	X52	Y52	Z52	X53	Y53	Z53	

210	1.045	892.1336059570311	1587.738891601562	187.7212677001955	839.7471313476561	1612.656982421875	251.3338165283205	851.0748901367186	1611.413330078125	113.0680160522463	665.0689086914061	1429.263061523438	171.7918395996095	604.1606445312499	1260.82568359375	172.168914794922	594.8345947265624	1220.086059570312	152.0938415527345	590.5726928710936	1213.940795898438	201.8274383544923	599.4802246093749	1156.39990234375	169.8133544921876	623.5569458007811	1091.0166015625	175.8232574462892	585.1243286132811	1057.671264648438	165.5707092285157	587.6298828124999	1055.184326171875	215.7651519775392	579.6573486328124	995.6754150390625	186.6438598632814	594.5791015624999	951.19384765625	171.8417358398439	602.3591308593749	946.13525390625	222.8206481933595	578.3792724609375	890.7635498046875	194.4825897216798	625.66162109375	682.2946166992188	4.155153274536247	568.0410766601562	640.8838500976562	40.38275527954112	611.6597290039062	625.1458740234375	21.97684288024914	531.2273559570312	335.2071228027344	32.88171768188487	471.1069946289062	285.4666137695313	49.47635269165048	520.0845336914062	274.7398681640626	43.28886032104501	415.6470947265625	97.60063934326175	144.6356811523438	626.778076171875	43.00815963745121	127.5455932617189	572.0067138671875	31.49328041076664	30.57004356384288	768.5393066406249	657.0338745117188	360.128631591797	840.3464965820311	626.1089477539062	374.525848388672	802.3164062499999	606.3365478515625	350.3258056640627	888.3247680664061	331.0171508789063	347.3004150390627	945.7507324218749	278.2973937988282	353.5880126953127	900.8881835937499	272.4967041015626	332.916229248047	970.2302856445312	59.75190734863287	232.9076538085939	1167.116577148438	125.266098022461	268.5793151855471	1120.549194335938	81.11401367187507	359.6961669921877	834.4046020507811	1325.660278320312	178.1134185791017	845.4486083984374	1181.2509765625	175.8445587158205	745.6333007812499	1392.489501953125	1.551126480102676	762.7065429687499	1246.928100585938	-105.5832901000975	762.2497558593749	1184.485473632812	-126.510643005371	806.7768554687499	1197.987060546875	-104.1126708984374	877.3004150390624	1009.78369140625	-152.7753601074217	880.6766357421874	932.8114013671875	-134.7172393798826	918.1248168945311	964.6864013671875	-144.4727478027342	993.9900512695312	894.6354370117189	-131.7417907714842	1019.658447265625	928.7406616210939	-63.96659469604474	743.4617919921873	1384.219482421875	345.916717529297	695.0463256835935	1242.249389648438	444.6982727050782	707.8989257812498	1178.072509765625	457.4292907714845	657.822570800781	1190.013549804688	460.8027648925782	652.8451538085935	972.9979858398438	505.055389404297	691.9621582031249	916.3522338867188	545.3173217773439	655.8653564453124	909.6910400390625	513.7534790039064	675.2223510742186	825.5653076171875	540.2730712890626	723.2459716796874	799.248046875	479.2593383789064	
211	1.05	898.9860229492186	1586.619506835938	188.6206512451174	846.6066284179686	1611.46435546875	252.279983520508	857.8928222656249	1610.354248046875	114.0038223266603	671.8594360351561	1428.201293945312	172.6370391845704	610.9255371093749	1259.767578125	173.0171661376954	601.5471801757811	1219.035888671875	152.9266662597657	597.3692016601561	1212.853515625	202.6636810302736	606.2066650390624	1155.334838867188	170.5929412841798	630.3147583007811	1089.91357421875	176.4922485351564	591.9426879882811	1056.605834960938	166.2866363525392	594.5471801757811	1054.033569335938	216.4673004150392	586.5078735351561	994.5863037109375	187.2598114013673	601.3713989257811	950.4664306640625	172.4454803466798	609.5460205078124	945.129150390625	223.2573852539064	584.9772338867188	890.0322875976562	194.9528808593751	630.5035400390625	682.2935791015625	4.272770404815789	572.9216918945312	641.1846923828125	40.90797805786143	616.2744140625	625.2068481445312	22.08125495910656	533.9663696289062	335.8253784179688	32.69138717651377	473.4229125976562	286.6247863769532	49.31739807128915	522.3113403320312	275.4795837402344	43.13962936401377	416.2964782714844	99.23962402343753	144.441131591797	626.9140625	42.90214538574222	127.5375366210939	572.1959838867188	31.50944900512699	30.56445503234874	774.0739135742186	655.3777465820312	359.3522338867189	845.5822143554686	624.1848754882812	374.7437744140627	807.9053344726561	604.6489868164062	349.682586669922	897.6050415039061	329.6595458984376	347.0915832519533	956.1079711914061	278.0457763671876	353.4682006835939	911.2819824218749	271.3885803222657	332.9048767089845	984.8921508789062	59.26551055908209	233.6246795654299	1180.542236328125	129.3041992187501	267.9666748046877	1135.618041992188	84.02199554443366	359.4338378906252	841.2655029296874	1324.50439453125	178.7555236816408	852.2517089843749	1180.122924804688	176.2620391845705	752.3237915039061	1391.542236328125	2.344480037689347	769.5892333984374	1246.133056640625	-104.816192626953	769.3421630859374	1183.6982421875	-125.7914810180663	813.8475952148436	1197.356201171875	-103.4490737915037	885.3596191406249	1009.679626464844	-152.1974792480467	889.3037719726561	932.7257690429688	-134.133590698242	926.5193481445311	964.8948364257812	-143.8486175537108	1002.902221679688	895.4423828125001	-131.0560760498045	1028.227905273438	929.7448120117189	-63.23186492919903	750.3710937499998	1383.032836914062	346.6760864257814	701.5572509765623	1241.141357421875	445.3362731933595	714.2079467773435	1176.927978515625	458.1150817871095	664.1693725585935	1189.007568359375	461.3739318847657	658.6088867187498	971.9815063476562	505.6345214843751	697.5388793945311	915.2434692382812	545.9290771484376	661.4856567382811	908.6630859375	514.3148803710939	680.6004638671874	824.4835205078125	540.8463745117189	728.7102661132811	798.0675048828125	479.8815307617189	
212	1.055	905.8740844726561	1585.516967773438	189.5549774169924	853.5047607421874	1610.287841796875	253.262664794922	864.7421264648436	1609.308959960938	114.9762573242189	678.6969604492186	1427.143432617188	173.5322418212892	617.7445678710936	1258.711791992188	173.8902740478517	608.3181762695311	1217.990356445312	153.7784576416017	604.2201538085936	1211.764892578125	203.5186309814454	612.9929199218749	1154.2724609375	171.3825531005861	637.1340332031249	1088.8115234375	177.1562500000001	598.8135986328124	1055.541870117188	167.0128936767579	601.5173339843749	1052.88330078125	217.1795501708986	593.4157104492186	993.4986572265625	187.8852081298829	608.2135009765624	949.7135620117188	173.0549316406251	616.7850952148436	944.108154296875	223.6964416503907	591.6657104492188	889.2687377929688	195.4344787597657	635.46875	682.2828369140625	4.395017147064325	577.9357299804688	641.4551391601562	41.42681503295909	621.0247192382812	625.2523803710938	22.18221664428722	536.8563232421875	336.4586486816407	32.48208236694346	475.8742980957031	287.8243713378907	49.11907577514657	524.6694946289062	276.2458496093751	42.97419357299815	417.0072021484375	100.9878311157227	144.2210845947266	627.061767578125	42.79154586791996	127.5348205566407	572.403564453125	31.54121780395511	30.56081199646007	779.8627319335936	653.8208618164062	358.7296142578127	851.1135253906249	622.414794921875	375.0137329101564	813.7553100585936	603.0862426757812	349.1832580566408	906.7344360351561	328.3783569335938	346.9217224121095	966.2098388671874	277.7794494628907	353.3450317382814	921.4180297851561	270.3488464355469	332.9068298339845	998.8831176757812	58.84702301025397	234.2815704345705	1193.331909179688	133.0716400146485	267.2516784667971	1150.02880859375	86.7291336059571	359.0688476562502	848.1790161132811	1323.363891601562	179.4335021972658	859.1118164062499	1179.01123046875	176.7077789306642	759.0612792968749	1390.61328125	3.181058406829973	776.5040283203124	1245.349853515625	-103.9990005493163	776.4521484374999	1182.926147460938	-125.0285873413085	820.9365844726561	1196.726440429688	-102.7367858886717	893.3695068359374	1009.549438476562	-151.5806732177733	897.8501586914061	932.6174926757812	-133.511276245117	934.8436279296874	965.0601806640626	-143.1949310302733	1011.710693359375	896.1765136718751	-130.3542480468748	1036.721801757812	930.6616821289064	-62.48851013183575	757.327453613281	1381.846435546875	347.4764709472657	708.1552734374998	1240.016967773438	446.007537841797	720.6178588867185	1175.770141601562	458.8292846679689	670.6159667968748	1187.978515625	461.9839782714845	664.5123291015623	970.9415893554688	506.2378845214845	703.2709350585936	914.1104736328125	546.5540771484376	667.2525024414061	907.6121215820312	514.8991088867189	686.1358642578124	823.377197265625	541.4287109375001	734.3238525390624	796.8746948242188	480.5041503906251	
213	1.06	912.8013305664061	1584.43505859375	190.5245513916017	860.4450073242186	1609.131469726562	254.2822113037111	871.6259765624999	1608.281127929688	115.9856643676759	685.5858154296874	1426.09228515625	174.4785003662111	624.6223754882811	1257.661499023438	174.7872314453126	615.1520385742186	1216.953369140625	154.6479339599611	611.1301269531249	1210.678100585938	204.3909454345704	619.8429565429686	1153.216430664062	172.1804962158204	644.0184936523436	1087.714721679688	177.8145446777345	605.7387695312499	1054.483276367188	167.7483520507814	608.5427856445311	1051.737182617188	217.9005126953126	600.3834228515624	992.4155883789062	188.5193023681642	615.1099853515624	948.9340209960938	173.6673126220704	624.0679931640624	943.0751342773438	224.140838623047	598.4484252929688	888.4716796875	195.9245758056642	640.5719604492188	682.2592163085938	4.520242691040156	583.0940551757812	641.6915893554688	41.93125534057628	625.9243774414062	625.2796020507812	22.27789115905773	539.9053344726562	337.1087341308594	32.25479507446299	478.4695434570312	289.0680847167969	48.88314437866219	527.1665649414062	277.0399780273438	42.79399490356455	417.788330078125	102.8517990112305	143.9771423339845	627.2218017578125	42.67520904541019	127.5370483398439	572.6320190429688	31.5903415679932	30.55879211425792	785.9450683593749	652.3716430664062	358.269744873047	856.9909667968749	620.8098754882812	375.3105773925783	819.9026489257811	601.654541015625	348.8278808593752	915.7080078124999	327.1676940917969	346.7852172851564	976.0425415039061	277.4816284179688	353.2229309082033	931.2843017578124	269.3653869628907	332.9150695800783	1012.163757324219	58.46224212646491	234.8724517822268	1205.471435546875	136.4939117431641	266.450866699219	1163.743286132812	89.17274475097663	358.6126403808596	855.1489257812499	1322.242919921875	180.1490325927736	866.0333862304686	1177.919311523438	177.1837768554689	765.8506469726561	1389.707275390625	4.06238603591933	783.4564819335936	1244.584594726562	-103.1314239501952	783.5830688476561	1182.175537109375	-124.2223510742186	828.0481567382811	1196.102661132812	-101.9763031005858	901.3306274414061	1009.395568847656	-150.9262847900389	906.3154907226561	932.48828125	-132.8516998291014	943.0980834960936	965.1840209960939	-142.5129089355467	1020.416137695312	896.8375244140626	-129.6373291015623	1045.141357421875	931.4915771484376	-61.73756790161114	764.3336181640623	1380.6640625	348.3189697265626	714.8442382812498	1238.878540039062	446.7129211425782	727.133361816406	1174.601440429688	459.572235107422	677.166564941406	1186.928344726562	462.6328735351564	670.5598144531248	969.8803100585938	506.8643493652345	709.1618041992186	912.9556274414062	547.1925048828126	673.1702880859374	906.5401611328125	515.5050048828126	691.8331909179686	822.2489013671875	542.0199584960939	740.0909423828124	795.6712036132812	481.128631591797	
